<?xml version="1.0" encoding="utf-8"?>
<!-- Generator: Adobe Illustrator 27.5.0, SVG Export Plug-In . SVG Version: 6.00 Build 0)  -->
<svg version="1.1" xmlns="http://www.w3.org/2000/svg" xmlns:xlink="http://www.w3.org/1999/xlink" x="0px" y="0px"
	 viewBox="0 0 500 500" style="enable-background:new 0 0 500 500;" xml:space="preserve">
<g id="BACKGROUND">
	<rect style="fill:#FFF4EB;" width="500" height="500"/>
</g>
<g id="OBJECTS">
	<path style="fill:#F4E8DF;" d="M500,276.87v108.45H326.33c-0.36-0.47-0.73-0.95-1.08-1.43c-19.47-26.51-9.54-63.41-16.81-95.22
		c-6.45-28.2-27.74-52.66-55.49-63.76c-26.16-10.47-55.72-9.21-84.2-10.3c-28.49-1.1-58.93-5.65-79.2-24.52
		c-17.82-16.6-24.47-41.36-27.31-65.17c-2.84-23.82-2.69-48.28-10.15-71.08C45.09,32.42,30.85,13.81,12.56,0h113.01
		c7.66,17.59,12,36.59,18.15,54.82c7.66,22.74,19.26,45.68,40.19,58.56c23.81,14.65,54.7,13.39,82.96,9.13
		c28.26-4.27,57.1-11.03,84.98-5.71c29.58,5.65,55.53,25.57,67.64,51.92c13.66,29.72,11.43,67.63,36.01,89.89
		C467.39,269.39,483.53,274.29,500,276.87z"/>
	<path style="fill:#C7D5D1;" d="M84.263,270.902c0,48.123-37.101,87.579-84.263,91.328V179.567
		C47.162,183.316,84.263,222.779,84.263,270.902z"/>
	<path style="fill:#FFF4EB;" d="M53.804,270.901c0,30.728-23.69,55.922-53.804,58.315V212.581
		C30.114,214.974,53.804,240.173,53.804,270.901z"/>
	<path style="fill:#C7D5D1;" d="M403.467,84.263c-48.123,0-87.579-37.101-91.328-84.263h182.663
		C491.053,47.162,451.59,84.263,403.467,84.263z"/>
	<path style="fill:#FFF4EB;" d="M403.468,53.804c-30.728,0-55.922-23.69-58.316-53.804h116.635
		C459.395,30.114,434.196,53.804,403.468,53.804z"/>
	<rect y="385.324" style="fill:#4A5859;" width="500" height="114.676"/>
	<g style="opacity:0.39;">
		<rect y="385.324" style="fill:#C7D5D1;" width="38.612" height="38.225"/>
		<rect x="38.612" y="423.549" style="fill:#C7D5D1;" width="38.612" height="38.225"/>
		<rect y="461.775" style="fill:#C7D5D1;" width="38.612" height="38.225"/>
		<rect x="76.753" y="385.324" style="fill:#C7D5D1;" width="38.612" height="38.225"/>
		<rect x="115.365" y="423.549" style="fill:#C7D5D1;" width="38.612" height="38.225"/>
		<rect x="76.753" y="461.775" style="fill:#C7D5D1;" width="38.612" height="38.225"/>
		<rect x="153.435" y="385.324" style="fill:#C7D5D1;" width="38.612" height="38.225"/>
		<rect x="192.047" y="423.549" style="fill:#C7D5D1;" width="38.612" height="38.225"/>
		<rect x="153.435" y="461.775" style="fill:#C7D5D1;" width="38.612" height="38.225"/>
		<rect x="230.188" y="385.324" style="fill:#C7D5D1;" width="38.612" height="38.225"/>
		<rect x="268.8" y="423.549" style="fill:#C7D5D1;" width="38.612" height="38.225"/>
		<rect x="230.188" y="461.775" style="fill:#C7D5D1;" width="38.612" height="38.225"/>
		<rect x="307.412" y="385.324" style="fill:#C7D5D1;" width="38.612" height="38.225"/>
		<rect x="346.023" y="423.549" style="fill:#C7D5D1;" width="38.612" height="38.225"/>
		<rect x="307.412" y="461.775" style="fill:#C7D5D1;" width="38.612" height="38.225"/>
		<rect x="384.164" y="385.324" style="fill:#C7D5D1;" width="38.612" height="38.225"/>
		<rect x="422.776" y="423.549" style="fill:#C7D5D1;" width="38.612" height="38.225"/>
		<rect x="384.164" y="461.775" style="fill:#C7D5D1;" width="38.612" height="38.225"/>
		<rect x="461.388" y="385.324" style="fill:#C7D5D1;" width="38.612" height="38.225"/>
		<rect x="461.388" y="461.775" style="fill:#C7D5D1;" width="38.612" height="38.225"/>
	</g>
	<g>
		<g>
			<path style="fill:none;stroke:#4A5859;stroke-miterlimit:10;" d="M235.143,102.216c-42.917,64.827-61.787,145.19-52.209,222.344"
				/>
			<path style="fill:#4A5859;" d="M183.616,238.698c0,0,38.771-62.898,56.049-35.99
				C256.942,229.616,183.616,238.698,183.616,238.698z"/>
			<path style="fill:#4A5859;" d="M194.696,189.107c0,0,34.834-65.16,53.732-39.365S194.696,189.107,194.696,189.107z"/>
			<path style="fill:#4A5859;" d="M194.833,189.107c0,0-43.242-59.912-11.767-65.561
				C214.54,117.897,194.833,189.107,194.833,189.107z"/>
			<path style="fill:#4A5859;" d="M183.616,238.698c0,0-58.17-45.558-29.5-59.72C182.785,164.816,183.616,238.698,183.616,238.698z"
				/>
			<path style="fill:#4A5859;" d="M216.171,134.889c0,0,25.693-69.276,47.909-46.276
				C286.296,111.612,216.171,134.889,216.171,134.889z"/>
		</g>
		<g>
			<path style="fill:none;stroke:#4A5859;stroke-miterlimit:10;" d="M115.189,88.461c27.926,28.568,44.987,66.363,54.279,105.217
				c9.292,38.854,11.288,79.044,12.533,118.975"/>
			<path style="fill:#D6C4B2;" d="M124.798,101.154c6.055,8.885,9.334,19.634,9.268,30.387c-0.02,3.358-0.496,7.018-2.897,9.365
				c-1.871,1.829-4.676,2.518-7.267,2.155c-2.592-0.363-4.978-1.682-6.967-3.382c-4.443-3.796-7.016-9.426-8.107-15.167
				c-1.091-5.741-0.958-11.442-0.532-17.27c-3.015,8.985-6.349,18.45-13.637,24.509c-2.02,1.679-4.346,3.065-6.913,3.624
				c-2.567,0.559-5.397,0.221-7.551-1.282c-2.306-1.608-3.613-4.388-3.905-7.184c-0.291-2.796,0.334-5.616,1.27-8.268
				c2.486-7.046,7.137-13.168,12.542-18.326c5.405-5.158,11.576-9.434,17.719-13.687c-0.84-8.244,2.309-16.161,7.082-22.935
				c4.773-6.774,11.673-11.92,19.302-15.153c4.464-1.892,10.054-3.004,13.823,0.046c2.537,2.054,3.531,5.594,3.159,8.837
				c-0.372,3.243-1.929,6.235-3.748,8.946c-5.262,7.843-13.002,13.996-21.829,17.356c10.528-3.259,22.673-2.508,33.097,1.069
				c3.598,1.234,7.149,2.924,9.761,5.689c2.612,2.765,4.143,6.777,3.173,10.455c-0.727,2.759-2.772,5.044-5.214,6.519
				c-2.442,1.475-5.261,2.213-8.08,2.653C146.453,111.967,134.153,108.732,124.798,101.154z"/>
			<path style="fill:#C38F67;" d="M121.113,78.685c2.34,1.879,0.721,7.78-3.616,13.179c-4.337,5.399-9.749,8.252-12.089,6.373
				c-2.34-1.879-0.721-7.78,3.616-13.179C113.361,79.659,118.773,76.805,121.113,78.685z"/>
			<g>
				<g>
					<path style="fill:#4A5859;" d="M107.982,96.651c1.609,0,1.611-2.5,0-2.5C106.374,94.151,106.371,96.651,107.982,96.651
						L107.982,96.651z"/>
				</g>
			</g>
			<g>
				<g>
					<path style="fill:#4A5859;" d="M112.762,94.147c1.609,0,1.611-2.5,0-2.5C111.153,91.647,111.151,94.147,112.762,94.147
						L112.762,94.147z"/>
				</g>
			</g>
			<g>
				<g>
					<path style="fill:#4A5859;" d="M116.403,89.823c1.609,0,1.611-2.5,0-2.5C114.795,87.323,114.792,89.823,116.403,89.823
						L116.403,89.823z"/>
				</g>
			</g>
			<g>
				<g>
					<path style="fill:#4A5859;" d="M117.997,84.361c1.609,0,1.611-2.5,0-2.5C116.388,81.861,116.385,84.361,117.997,84.361
						L117.997,84.361z"/>
				</g>
			</g>
			<g>
				<g>
					<path style="fill:#4A5859;" d="M113.445,85.499c0.047,0,0.094,0,0.141,0c1.609,0,1.611-2.5,0-2.5c-0.047,0-0.094,0-0.141,0
						C111.836,82.999,111.833,85.499,113.445,85.499c0.047,0,0.094,0,0.141,0c1.609,0,1.611-2.5,0-2.5c-0.047,0-0.094,0-0.141,0
						C111.836,82.999,111.833,85.499,113.445,85.499L113.445,85.499z"/>
				</g>
			</g>
			<g>
				<g>
					<path style="fill:#4A5859;" d="M110.143,89.256c0-0.076,0-0.152,0-0.228c0.007-0.172-0.029-0.333-0.108-0.482
						c-0.05-0.155-0.137-0.289-0.258-0.402c-0.113-0.122-0.247-0.208-0.402-0.258c-0.149-0.078-0.309-0.114-0.482-0.108
						c-0.111,0.015-0.222,0.03-0.332,0.045c-0.212,0.059-0.396,0.167-0.551,0.321c-0.065,0.084-0.13,0.169-0.195,0.253
						c-0.113,0.195-0.17,0.405-0.171,0.631c0,0.076,0,0.152,0,0.228c-0.006,0.172,0.029,0.333,0.108,0.482
						c0.05,0.155,0.137,0.289,0.258,0.402c0.113,0.122,0.247,0.208,0.402,0.258c0.149,0.078,0.31,0.114,0.482,0.108
						c0.111-0.015,0.222-0.03,0.332-0.045c0.212-0.059,0.396-0.166,0.552-0.321c0.065-0.084,0.13-0.169,0.196-0.253
						C110.085,89.692,110.142,89.481,110.143,89.256L110.143,89.256z"/>
				</g>
			</g>
			<g>
				<g>
					<path style="fill:#4A5859;" d="M112.989,89.368c1.609,0,1.611-2.5,0-2.5C111.381,86.868,111.378,89.368,112.989,89.368
						L112.989,89.368z"/>
				</g>
			</g>
			<path style="fill:#C7D5D1;" d="M160.104,163.348c-18.009-10.476-41.278-11.294-59.978-2.108
				c8.632,6.217,19.396,9.955,30.028,10.333C140.785,171.951,151.051,168.936,160.104,163.348z"/>
		</g>
		<path style="fill:#C38F67;" d="M199.68,268.26l1.697-10.844h-46.596l1.735,12.04c2.525,17.53-5.811,34.933-21.203,43.696
			c-25.944,14.77-43.62,42.391-44.361,74.203c-1.131,48.526,37.916,89.125,86.451,89.801c49.024,0.684,88.979-38.851,88.979-87.718
			c0-33.012-18.235-61.765-45.181-76.737C205.405,303.925,196.887,286.112,199.68,268.26z M178.654,424.816
			c-19.539,0-35.378-15.839-35.378-35.378c0-19.539,15.839-35.378,35.378-35.378c19.539,0,35.378,15.84,35.378,35.378
			C214.032,408.977,198.193,424.816,178.654,424.816z"/>
	</g>
	<path style="fill:#E8CBC4;" d="M84.263,67.169C66.301,70.34,63.73,72.911,60.559,90.874c-3.171-17.962-5.742-20.533-23.704-23.704
		c17.962-3.171,20.533-5.742,23.704-23.704C63.73,61.427,66.301,63.998,84.263,67.169z"/>
	<path style="fill:#E8CBC4;" d="M211.297,97.242c-15.194,2.683-17.368,4.857-20.051,20.051
		c-2.682-15.194-4.857-17.368-20.051-20.051c15.194-2.682,17.368-4.857,20.051-20.051C193.929,92.385,196.104,94.56,211.297,97.242z
		"/>
	<path style="fill:#E8CBC4;" d="M230.659,66.066c-8.229,1.453-9.406,2.63-10.859,10.859c-1.453-8.228-2.63-9.406-10.859-10.859
		c8.228-1.453,9.406-2.63,10.859-10.859C221.253,63.435,222.43,64.613,230.659,66.066z"/>
	<path style="fill:#E8CBC4;" d="M192.053,41.714c-8.228,1.453-9.406,2.63-10.859,10.859c-1.453-8.228-2.63-9.406-10.859-10.859
		c8.229-1.453,9.406-2.63,10.859-10.859C182.647,39.084,183.825,40.262,192.053,41.714z"/>
	<path style="fill:#E8CBC4;" d="M77.595,149.158c-11.021,1.946-12.598,3.523-14.544,14.544
		c-1.946-11.021-3.523-12.598-14.544-14.544c11.021-1.946,12.598-3.523,14.544-14.544C64.997,145.635,66.574,147.212,77.595,149.158
		z"/>
	<g>
		<path style="fill:#C38F67;" d="M458.278,297.861H250.364V193.904c0-57.414,46.543-103.957,103.957-103.957h0
			c57.414,0,103.957,46.543,103.957,103.957V297.861z"/>
		<path style="fill:#C7D5D1;" d="M437.306,193.905v82.989h-165.97v-82.989c0-45.836,37.154-82.989,82.989-82.989
			c22.914,0,43.663,9.293,58.671,24.31C428.022,150.242,437.306,170.992,437.306,193.905z"/>
		<circle style="fill:#C38F67;" cx="384.028" cy="160.03" r="29.707"/>
		<path style="fill:#586B6B;" d="M437.306,215.78v61.114h-165.97v-52.703c4.851-5.689,10.034-11.116,16.395-14.991
			c8.063-4.913,18.507-6.954,27.006-2.844c10.27,4.974,16.36,17.957,27.704,19.214c4.799,0.541,9.555-1.265,13.778-3.577
			c13.926-7.635,25.331-21.421,41.124-22.957c11.116-1.091,21.797,4.31,31.133,10.436
			C431.486,211.444,434.461,213.529,437.306,215.78z"/>
		<path style="fill:#4A5859;" d="M437.306,239.392v37.503h-165.97v-38.367c0.768-0.105,1.553-0.157,2.33-0.174
			c12.216-0.21,22.861,8.952,35.033,9.991c14.511,1.23,27.198-9.083,37.922-18.934c8.272-7.6,17.015-15.619,28-17.94
			c14.554-3.071,29.117,4.598,41.255,13.193C422.9,229.637,429.854,235.125,437.306,239.392z"/>
		<path style="fill:#F5F5F5;" d="M313.201,189.033h64.323c1.906-2.327,2.36-5.932,1.058-8.644c-1.301-2.712-4.251-4.547-7.259-4.516
			c1.699-2.186,1.955-5.292,1.004-7.892c-0.951-2.6-2.982-4.71-5.349-6.147c-4.434-2.693-10.222-3.094-14.914-0.881
			c-4.692,2.213-8.094,7.029-8.442,12.205c-3.688-2.295-8.485-2.703-12.508-1.066c-4.023,1.637-7.171,5.28-8.209,9.498
			c-2.495-0.697-5.278-0.284-7.462,1.109c-2.184,1.392-3.734,3.741-4.155,6.297C311.767,188.945,312.724,189.082,313.201,189.033z"
			/>
		<path style="fill:#F5F5F5;" d="M292.391,161.17h44.886c1.33-1.624,1.647-4.139,0.739-6.032c-0.908-1.893-2.966-3.173-5.066-3.152
			c1.186-1.525,1.364-3.693,0.701-5.507c-0.663-1.814-2.081-3.287-3.732-4.29c-3.094-1.879-7.133-2.159-10.407-0.615
			c-3.274,1.544-5.648,4.905-5.891,8.517c-2.574-1.601-5.921-1.887-8.729-0.744c-2.808,1.143-5.004,3.685-5.728,6.628
			c-1.741-0.486-3.683-0.198-5.207,0.774c-1.524,0.972-2.606,2.611-2.899,4.394C291.39,161.109,292.058,161.204,292.391,161.17z"/>
	</g>
	<path style="fill:#C38F67;" d="M491.49,397.26c0,0.21-0.02,0.42-0.06,0.63c-0.03-0.58-0.07-1.16-0.14-1.74
		C491.43,396.52,491.49,396.89,491.49,397.26z"/>
	<g>
		<path style="fill:#B57E59;" d="M449.893,419.192c-1.9,9.93-48.53,17.87-105.78,17.87s-103.88-7.94-105.78-17.87
			c0.03-0.58,0.07-1.16,0.14-1.74c3.28-9.69,49.33-17.38,105.64-17.38s102.36,7.69,105.64,17.38
			C449.823,418.032,449.863,418.612,449.893,419.192z"/>
		<g>
			<path style="fill:#FFF4EB;" d="M433.961,415.39c-11.705-14.699-34.086-19.635-50.888-11.222
				c-7.249,3.63-13.337,9.338-20.726,12.674c-9.789,4.418-21.069,4.294-31.636,2.379c-10.568-1.915-20.757-5.511-31.242-7.835
				c-10.485-2.324-21.606-3.333-31.842-0.084c-10.236,3.249-19.399,11.494-21.254,22.072
				c50.599,17.071,105.863,22.749,158.653,14.697l32.779-12.336C441.497,429.39,438.535,421.134,433.961,415.39z"/>
			<path style="fill:#E8CBC4;" d="M450.347,421.204c0,36.957-47.566,66.918-106.234,66.918c-58.668,0-106.234-29.961-106.234-66.918
				c0-0.763,0.02-1.516,0.06-2.268c1.907,9.967,48.711,17.936,106.174,17.936c57.463,0,104.266-7.969,106.174-17.936
				C450.327,419.688,450.347,420.441,450.347,421.204z"/>
		</g>
	</g>
	<g>
		<path style="fill:#E8CBC4;" d="M116.027,403.983v41.81c0,21.61-17.51,39.12-39.12,39.12c-21.6,0-39.11-17.51-39.11-39.12v-41.81
			c0-4.12,17.51-7.46,39.11-7.46C98.517,396.523,116.027,399.863,116.027,403.983z"/>
		<path style="fill:#B57E59;" d="M116.027,403.983c0,4.12-17.51,7.46-39.12,7.46c-21.6,0-39.11-3.34-39.11-7.46
			s17.51-7.46,39.11-7.46C98.517,396.523,116.027,399.863,116.027,403.983z"/>
		<g>
			<path style="fill:#E8CBC4;" d="M43.099,465.53v-10.206c-9.31-0.74-16.633-8.53-16.633-18.029c0-9.499,7.324-17.288,16.633-18.028
				V409.06c-14.58,1.159-26.05,13.357-26.05,28.234S28.52,464.371,43.099,465.53z"/>
		</g>
		<path style="fill:#FFF4EB;" d="M77.325,443.291c0,0-12.688-24.254,0-24.254C90.013,419.038,77.325,443.291,77.325,443.291z"/>
		<path style="fill:#FFF4EB;" d="M77.325,444.902c0,0,12.688,24.254,0,24.254C64.637,469.156,77.325,444.902,77.325,444.902z"/>
		<path style="fill:#FFF4EB;" d="M78.131,444.097c0,0,24.254-12.688,24.254,0S78.131,444.097,78.131,444.097z"/>
		<path style="fill:#FFF4EB;" d="M76.52,444.097c0,0-24.254,12.688-24.254,0S76.52,444.097,76.52,444.097z"/>
	</g>
</g>
</svg>
