<?xml version="1.0" encoding="utf-8"?>
<!-- Generator: Adobe Illustrator 27.5.0, SVG Export Plug-In . SVG Version: 6.00 Build 0)  -->
<svg version="1.1" xmlns="http://www.w3.org/2000/svg" xmlns:xlink="http://www.w3.org/1999/xlink" x="0px" y="0px"
	 viewBox="0 0 500 500" style="enable-background:new 0 0 500 500;" xml:space="preserve">
<g id="BACKGROUND">
	<rect style="fill:#F6EEDF;" width="500" height="500"/>
</g>
<g id="OBJECTS">
	<g>
		<path style="fill:#FAF5EC;" d="M370.724,375.763c-0.012,30.317-0.118,39.847-0.118,39.847h-259.18c0,0-1.064-9.375-1.782-40.035
			c-0.394-16.931-0.73-36.711-0.846-57.343c-0.046-7.457-0.058-15.037-0.035-22.627c0.093-29.597,0.741-59.426,2.468-83.849
			c3.51-49.93,33.077-131.541,119.621-131.673c79.187-0.122,125.9,49.731,134.52,127.053c2.352,21.098,3.707,51.681,4.46,83.372
			C370.55,320.237,370.736,350.964,370.724,375.763z"/>
		<path style="fill:#E9D1B4;" d="M371.851,367.305c-0.011,28.865-0.285,49.301-0.285,49.301H135.547c0,0-0.791-20.288-1.445-49.481
			c-0.359-16.121-0.665-34.953-0.77-54.598c-0.042-7.1-0.053-14.317-0.032-21.543c0.084-28.18,0.675-56.581,2.247-79.834
			c3.197-47.539,30.121-125.242,108.931-125.368c72.111-0.116,114.649,47.349,122.499,120.969
			c2.142,20.088,3.376,49.206,4.062,79.38C371.693,314.437,371.862,343.693,371.851,367.305z"/>
		<g>
			<path style="fill:#DDAE8E;" d="M370.924,281.33c-0.544-21.941-1.393-43.074-2.683-60.329
				c-30.185-1.535-60.343-3.545-88.768,5.716c-17.465,5.691-33.621,15.493-51.678,18.861c-10.007,1.866-20.255,1.691-30.434,2.049
				c15.25,5.324,30.049,12.62,45.397,17.801C283.688,279.246,327.711,277.793,370.924,281.33z"/>
			<path style="fill:#D2A57A;" d="M133.509,266.898c1.466-0.292,2.843-0.566,4.082-0.835c12.764-2.778,26.196-3.945,38.805-0.531
				c9.477,2.565,17.981,7.557,26.522,12.506c5.733-2.392,11.614-4.372,17.778-4.652c12.378-0.563,23.881,5.734,34.915,11.371
				c6.135,3.135,12.34,6.109,18.598,8.957c14.234-0.387,28.44-1.764,42.478-4.151c14.938-2.541,29.749-6.213,44.881-6.988
				c3.11-0.159,6.25-0.176,9.385-0.041c-0.01-0.401-0.019-0.802-0.029-1.202c-43.213-3.536-87.237-2.083-128.167-15.901
				c-15.348-5.181-30.147-12.478-45.397-17.801c-8.894-3.105-17.941-5.54-27.341-6.489c-11.917-1.203-23.95,0.045-35.945,0.956
				C133.819,250.144,133.634,258.458,133.509,266.898z"/>
			<path style="fill:#DBAE7D;" d="M196.081,281.031c2.26-1.01,4.537-2.034,6.837-2.994c-8.541-4.948-17.045-9.941-26.522-12.506
				c-12.609-3.413-26.041-2.246-38.805,0.531c-1.239,0.27-2.616,0.543-4.082,0.835c-0.118,7.964-0.185,16.032-0.209,24.086
				c-0.014,4.737-0.009,9.456,0.004,14.154c7.179-3.194,15.918-4.977,23.07-7.698C169.761,292.347,183.004,286.875,196.081,281.031z
				"/>
			<path style="fill:#DBAE7D;" d="M361.568,282.573c-15.132,0.775-29.943,4.447-44.881,6.988
				c-14.037,2.387-28.244,3.765-42.478,4.151c8.273,3.764,16.646,7.297,25.096,10.645c23.268-6.88,47.581-10.074,71.856-12.646
				c-0.039-1.863-0.079-3.724-0.122-5.58c-0.027-1.203-0.057-2.4-0.086-3.599C367.818,282.398,364.678,282.414,361.568,282.573z"/>
			<path style="fill:#D0966E;" d="M177.742,304.885c6.413,0.539,12.499,2.928,18.582,5.028c10.195,3.519,20.651,6.284,31.254,8.264
				c8.147,1.522,16.486,2.582,24.714,1.585c10.958-1.328,21.106-6.209,31.413-10.159c5.136-1.968,10.345-3.691,15.602-5.245
				c-8.45-3.349-16.823-6.881-25.096-10.645c-6.259-2.848-12.463-5.822-18.598-8.957c-11.034-5.637-22.537-11.934-34.915-11.371
				c-6.164,0.28-12.046,2.26-17.778,4.652c-2.3,0.96-4.577,1.984-6.837,2.994c-13.077,5.844-26.319,11.316-39.706,16.409
				c-7.152,2.721-15.891,4.504-23.07,7.698c0.006,2.023,0.012,4.046,0.022,6.054c8.141-1.389,16.507-2.275,24.248-3.929
				C164.22,305.843,170.97,304.316,177.742,304.885z"/>
			<path style="fill:#C78B32;" d="M283.703,309.603c-10.307,3.95-20.455,8.831-31.413,10.159
				c-8.228,0.997-16.567-0.063-24.714-1.585c-10.602-1.98-21.058-4.745-31.254-8.264c-6.083-2.1-12.169-4.489-18.582-5.028
				c-6.771-0.569-13.522,0.959-20.167,2.379c-7.741,1.654-16.107,2.54-24.248,3.929c0.002,0.443,0.002,0.893,0.005,1.335
				c0.042,7.802,0.116,15.471,0.212,22.898c32.779,1.276,65.537,13.886,98.773,15.914c22.472,1.371,45.063-2.132,67.5-0.282
				c25.128,2.072,48.697,10.655,72.032,20.501c0.002-1.398,0.003-2.812,0.004-4.253c0.01-22.063-0.137-49.054-0.69-75.593
				c-24.275,2.572-48.588,5.766-71.856,12.646C294.049,305.912,288.84,307.634,283.703,309.603z"/>
			<path style="fill:#B55B32;" d="M232.316,351.339c-33.235-2.027-65.994-14.638-98.773-15.914
				c0.146,11.273,0.342,21.981,0.559,31.7c0.167,7.448,0.343,14.312,0.512,20.412c14.587-3.182,28.786-8.359,43.089-12.49
				c11.508-3.324,23.255-6.111,35.258-6.721c14.335-0.728,28.625,1.652,42.781,4.024c38.734,6.489,77.536,12.997,116.03,20.803
				c0.037-6.264,0.066-13.557,0.076-21.595c-23.335-9.846-46.904-18.429-72.032-20.501
				C277.379,349.207,254.788,352.71,232.316,351.339z"/>
			<path style="fill:#D7A781;" d="M212.961,368.326c-12.004,0.609-23.75,3.397-35.258,6.721
				c-14.303,4.131-28.503,9.308-43.089,12.49c0.07,2.519,0.139,4.902,0.205,7.146c4.409-0.038,8.698,0.115,12.325,0.029
				c13.752-0.326,27.512,0.109,41.234,1.036c7.065,0.48,14.144,1.098,21.067,2.587c6.361,1.368,12.539,3.46,18.763,5.358
				c18.846,5.75,38.089,9.724,57.512,12.913h85.847c0,0,0.121-8.988,0.205-23.453c-38.494-7.806-77.296-14.313-116.03-20.803
				C241.586,369.978,227.296,367.598,212.961,368.326z"/>
			<path style="fill:#EBD7BB;" d="M285.72,416.605H135.55c0,0-0.33-8.31-0.73-21.92c4.41-0.04,8.7,0.11,12.32,0.03
				c6.29-0.15,12.59-0.14,18.87,0.01c7.47,0.16,14.92,0.52,22.37,1.02c6.68,0.45,13.37,1.03,19.93,2.36
				c0.38,0.07,0.75,0.15,1.13,0.23c6.37,1.37,12.54,3.46,18.77,5.36C247.05,409.445,266.3,413.415,285.72,416.605z"/>
		</g>
		<g>
			<path style="fill:#905026;" d="M424.257,394.825c-0.01,2-0.12,3.95-0.3,5.85c-0.21,2.05-0.51,4.03-0.91,5.95
				c-3.1,15.22-12.01,26.46-23.75,33.33c-13.12,0.39-26.23,0.81-39.35,0.49c-8.33-0.2-16.65-0.71-24.92-1.67
				c-1.71-0.99-3.4-2.05-5.04-3.19c-11.99-8.35-18.03-19.41-19.45-30.95c-0.24-1.99-0.35-3.98-0.32-5.98
				c0.03-2.6,0.28-5.21,0.73-7.8c0.34-1.94,0.79-3.88,1.36-5.79c3.46-11.7,11.01-22.6,21.21-30.28c11.89-8.95,19.22-22.7,19.5-37.59
				c0.07-3.69,0.11-6.22,0.11-6.22h18.45l0.13,1.63c1.37,16.79,11.62,31.34,26.61,39c14.03,7.18,23.33,19.84,25.46,35.71
				c0.27,1.93,0.42,3.9,0.46,5.91C424.257,393.755,424.257,394.285,424.257,394.825z"/>
			<path style="fill:#202E2E;" d="M370.747,257.335c2.32,1.41,4.77,2.45,6.97,4.05c2.05,1.48,3.77,3.72,5.84,4.94
				c-1.63-5.78-3.41-10.22-1.98-16.39c0.49-2.1,2.74-6.48,0.5-7.96c-0.6-0.4-2.11-0.48-3.74-0.47c-0.89-1.91-2.02-3.77-2.47-5.8
				c-0.29-1.31,0.46-5.25-0.21-5.91c-1.17-1.17-4.09,0.25-5.51,0.27c-2.52,0.04-4.5-2.3-6.81-1.69c-8.41,2.21-15.27,1.29-16.56,2.46
				c-2.35,2.13-0.05,9.4-6.83,13.63l-0.63,0.06c-1.8-3.21,0.66-7.85-0.42-11.38c-0.93-3.01-4.26-3.63-6.74-5.33
				c-4.48-3.08-5.77-8.31-9.88-11.58c-3.71-2.96-10.73-4.21-15.34-3.57c-6.65,0.93-11.95,5.6-17.82,8.26
				c6.35-2.05,13.92-0.5,19.52,2.8c3.42,2.02,6.54,5.11,10.36,6.36c-1.76-0.45-3.37,0.36-5.15,0.18c-3.34-0.34-7.19-2.77-10.21-4.16
				c-5.35-2.47-9.93-3.89-15.74-4.04c-3.43-0.08-6.27,0.04-8.4,3.02c-2.52,3.53-3.85,8.73-6.54,11.9c4.14-2.2,7.13-3.07,11.96-2.74
				c4.57,0.32,9.05,1.71,13.63,2.22c4.05,0.46,7.93,0.54,11.99,0.57c2.55,0.01,4.92,0.93,7.26,1.13c-1,1.46-4.31,1.57-6.05,1.98
				c-4.32,1.02-8.56,1.45-13,1.53c-3.86,0.08-7.73-0.25-11.57,0.32c-2.84,0.42-5.59,1.37-8.43,1.73c-4.81,0.63-8.42,1.11-11.17,5.56
				c-2.18,3.52-5.33,9.95-5.39,14c2.72-0.41,4.92-3.37,7.38-4.67c2.65-1.39,5.54-1.58,8.33-2.62c2.74-1.01,6.11-2.09,8.52-3.72
				c1.84-1.24,2.86-3.24,4.51-4.73c4.03-3.64,7.54-1.94,12.46-1.17c4.34,0.69,8.86,0.8,13.21,0.42c-5.78,3.28-12.99,4.23-19.14,6.73
				c-2.82,1.15-5.78,2.46-8.79,3.04c-2.33,0.45-4.82-0.18-7.08,0.73c-2.57,1.03-4.7,3.42-6.77,5.11c-4.07,3.32-11.14,3.88-10.83,10
				c0.23,4.61,2,9.03,3.56,13.21c5.66-9.41,19.12-10.26,24.35-19.41c2.53-4.45,5.96-6,10.52-7.96c4.61-1.98,9.56-5.31,14.71-3.07
				c-1.83,3.57-8.08,4.89-11.31,6.76c-3.45,2-6.8,4.03-10.34,5.94c-5.03,2.72-9.63,6.02-14.38,9.2c-2.34,1.57-4.63,3.08-6.93,4.67
				c-0.78,0.54-3.96,2.13-4.24,2.97c-0.56,1.63,2.56,6.36,3.16,8.19c0.43,1.33,0.71,2.81,1.6,3.81c2.23-3.79,5-7.99,8.49-10.71
				c3.68-2.86,8.92-5.54,11.88-9.16c1.78-2.17,2.67-5.97,5.57-7.17c1.95-0.81,5.29-0.17,7.37-0.2c-1.71,7.25-9.68,14.1-14.54,19.36
				c-3.13,3.38-9.2,7.22-10.43,11.9c7.1,6.88,18.62,6.7,25.96,13.32c1.8-4.54,4.8-3.54,9.17-4.59c3.47-0.83,7.11-2.23,10.44-3.42
				c-0.31-3.5-1.22-6.85-2.28-10.17c0.29-0.04,0.59-0.08,0.93-0.12c2.77-0.36,4.64-1.94,7.23-2.58c3.11-0.77,6.26,1.77,9.1,0.32
				c-0.6-5.99,0.8-11.42-2.8-16.63c-1.04-1.5-9.38-10.86-7.36-13.06c3.11-3.39,10.38,14.68,11.04,17.22
				c1.69,6.48,3.13,13.62,3.52,20.32c1.49-3.39,2.11-6.85,5.22-9.23c0.72-0.54,1.51-0.99,2.32-1.39c0.19,0.98,0.38,1.95,0.56,2.93
				c1.08,5.75,2.06,11.53,2.95,17.32c2.15,13.81,3.78,27.71,4.89,41.63c0.5,6.35,2.25,31.97,3.57,52.09
				c0.11,1.69,0.21,3.33,0.32,4.92c0.58,9,1.04,16.31,1.19,19.32c1.32,0.02,2.65,0.03,3.98,0.02c-0.01-2.84-0.41-10.33-0.97-19.54
				c-0.1-1.62-0.21-3.3-0.32-5.01c-1.22-19.33-2.94-43.39-3.35-49.01c-0.75-10.06-1.76-20.1-3.05-30.11
				c-0.61-4.77-1.29-9.54-2.02-14.31c-1.14-7.36-2.44-14.7-3.88-22.01c0.63-0.31,1.25-0.63,1.83-1c-1.17-5.22-2.45-10.4-5.23-14.89
				c-0.52-2.28-1.06-4.56-1.62-6.83c-0.43-1.73-0.89-3.47-1.4-5.19c0.13,0.15,0.28,0.28,0.41,0.43c3.3,3.87,3.18,9.33,6.31,13.33
				c2.49,3.18,2.53,4.03,2.6,8.21c0.04,2.68,0.53,5.38,0.99,8c1.94-3.89,3.66-8.48,6.48-11.84c2.06-2.45,4.65-3.81,7.26-5.56
				c-4.47-4.84-6.87-12.44-12.02-16.43c-2.72-2.1-6.57-3.88-9.65-5.42c-2.17-1.09-4.88-1.38-6.8-2.86
				C356.387,245.525,364.487,253.545,370.747,257.335z M365.617,238.855c1.61-0.34,3.07-1.43,4.81-1.13
				c2.09,0.36,3.96,2.04,5.66,3.84c-1.15,0.05-2.17,0.09-2.75,0.06c-4.43-0.29-9.15,0.18-13.52-0.68
				C360.807,238.725,363.577,239.285,365.617,238.855z M324.487,290.395c-1.2-3.6-2.29-7.23-2.72-11.03
				c-0.44-3.88,2.33-11.79,4.43-3.92C327.597,280.665,326.487,285.695,324.487,290.395z M350.067,265.705
				c0.09,0.36,0.18,0.73,0.27,1.1c-4.01-3.17-8.67-5.68-9.89-11.28c2.4,0.01,4.78,0.56,6.96,1.54
				C348.487,259.885,349.327,262.815,350.067,265.705z"/>
		</g>
		<g>
			<path style="fill:#FAF5EC;" d="M281.682,143.424c-3.253-2.387-4.994-5.264-7.145-10.621c-2.695,5.432-4.285,8.158-7.801,11.374
				c3.516,3.447,5.992,5.028,7.859,11.321C276.612,148.523,278.505,147.397,281.682,143.424z"/>
			<path style="fill:#FAF5EC;" d="M177.327,203.465c-3.253-2.387-4.994-5.264-7.145-10.621c-2.695,5.432-4.285,8.158-7.801,11.374
				c3.516,3.447,5.992,5.028,7.859,11.321C172.258,208.564,174.15,207.438,177.327,203.465z"/>
		</g>
		<path style="fill:#C78B32;" d="M423.957,400.675c-0.21,2.05-0.51,4.03-0.91,5.95c-3.54,0.13-7.08,0.27-10.62,0.42
			c-9.68,0.42-19.36,0.9-29.02,1.58c-3.79,0.28-7.59,0.57-11.4,0.79c-1.4,0.08-2.8,0.15-4.2,0.2c-4.41,0.17-8.82,0.18-13.22-0.11
			c-9.26-0.61-18.36-2.52-27.54-3.76c-4.44-0.6-8.89-0.91-13.36-1.08c-1.05-0.04-2.1-0.05-3.15-0.03c-0.24-1.99-0.35-3.98-0.32-5.98
			h0.18c2.51,0,5.01,0.12,7.5,0.41c5.07,0.61,10.1,1.52,15.11,2.49c8.93,1.75,17.88,3.31,27,3.34c2.5,0.01,4.99-0.07,7.48-0.2
			c1.4-0.09,2.8-0.18,4.2-0.29c5.57-0.43,11.12-1.07,16.67-1.56C400.207,401.795,412.077,401.155,423.957,400.675z"/>
		<path style="fill:#C78B32;" d="M424.237,393.225c-0.05,0-0.09,0.01-0.14,0.01c-4.91,0.37-9.83,0.65-14.75,0.86
			c-17.62,0.76-35.34-0.29-52.93-1.4c-8.71-0.55-17.4-1.5-26.11-2.08c-4.22-0.29-8.38-0.23-12.6,0.08
			c-2.27,0.17-4.52,0.28-6.76,0.16c0.34-1.94,0.79-3.88,1.36-5.79c2.56,0.17,5.15,0.08,7.69,0.11c4.82,0.05,9.63,0.53,14.41,1.12
			c17.27,2.13,34.63,3.3,52.04,2.87c8.71-0.21,17.41-0.63,26.1-1.1c3.75-0.21,7.49-0.45,11.23-0.75
			C424.047,389.245,424.197,391.215,424.237,393.225z"/>
		<path style="fill:#C78B32;" d="M168.746,287.845c1.054,2.539,2.729,5.151,5.168,6.551c1.858,1.067,4.096,1.43,6.322,1.613
			c0.012,3.254-0.11,19.39-0.187,22.641c5.068-0.117,10.135-0.263,15.211-0.12c-0.003-0.291-0.009-0.583-0.01-0.873
			c-0.021-4.869-0.041-22.623-0.061-27.492c-0.012-2.908-0.025-5.816-0.037-8.724c0.044-0.008,0.094-0.016,0.137-0.023
			c1.906-0.34,3.843-1.064,5.49-2.08c3.321-2.049,5.514-5.657,5.795-9.559c0.146-2.032-0.17-4.239-0.58-6.226
			c-0.395-1.915-1.609-3.691-3.643-4.048c-1.788-0.314-3.523,0.964-4.337,2.483c-0.788,1.47-1.003,3.286-1.222,4.919
			c-0.203,1.511-0.42,3.363-1.657,4.24c0.019-3.422,0.045-6.848-0.087-10.259c-0.126-3.271-0.64-7.214-3.289-9.479
			c-2.967-2.537-7.279-1.63-9.721,1.193c-2.871,3.32-2.646,7.91-2.474,12.021c0.203,4.873,0.323,9.751,0.437,14.627
			c0.051,2.199,0.088,4.397,0.123,6.595c-0.497-0.33-0.941-0.816-1.316-1.46c-1.258-2.163-1.484-4.885-1.707-7.326
			c-0.285-3.125-0.362-6.268-0.58-9.399c-0.185-2.654-0.527-5.698-3.206-7.04c-2.836-1.421-5.659,0.407-6.299,3.328
			c-0.598,2.726-0.507,5.719-0.499,8.494C166.527,277.599,166.744,283.023,168.746,287.845z"/>
		<g>
			<path style="fill:#D2A57A;" d="M326.311,127.997c0.753-1.01,2.229-1.443,3.372-0.913c1.143,0.53,1.763,2.022,1.25,3.172
				c-0.347,0.777-1.092,1.297-1.843,1.697C326.254,133.462,324.64,130.238,326.311,127.997z"/>
			<path style="fill:#D2A57A;" d="M363.826,102.155c-0.896-0.613-2.174-0.538-3.055,0.096c-0.881,0.634-1.353,1.756-1.301,2.84
				c0.029,0.608,0.228,1.235,0.681,1.642c0.666,0.598,1.723,0.563,2.521,0.157C364.369,106.025,365.89,103.568,363.826,102.155z"/>
			<path style="fill:#D2A57A;" d="M325.611,114.166c-0.143,1.476,0.566,3.109,1.938,3.672c2.885,1.183,6.336-3.01,4.925-5.663
				C330.643,108.733,325.924,110.921,325.611,114.166z"/>
			<path style="fill:#D2A57A;" d="M370.356,127.561c-1.166-0.58-2.606-0.764-3.758-0.158c-1.526,0.802-2.109,2.935-1.327,4.47
				c0.782,1.536,2.715,2.327,4.391,1.925c1.404-0.337,2.969-1.663,3.297-3.13C373.289,129.193,371.518,128.139,370.356,127.561z"/>
			<path style="fill:#D2A57A;" d="M372.309,144.739c-0.029,0.927,0.53,1.809,1.299,2.328c0.769,0.519,1.72,0.712,2.647,0.72
				c2.762,0.025,5.345-2.268,2.637-4.505C377.102,141.803,372.413,141.408,372.309,144.739z"/>
			<path style="fill:#D2A57A;" d="M341.54,133.186c4.084,3.451,6.901,0.368,2.967-3.106c-0.731-0.645-2.8-2.513-3.925-2.182
				C338.298,128.568,340.35,132.179,341.54,133.186z"/>
			<path style="fill:#D2A57A;" d="M356.133,113.724c-0.307,1.038,0.181,2.292,1.166,2.741c1.919,0.876,4.692-1.433,3.842-3.485
				C360.215,110.744,356.72,111.738,356.133,113.724z"/>
			<path style="fill:#D2A57A;" d="M344.314,109.548c1.163,0.837,4.195,1.045,4.642-0.769c0.276-1.12-1.053-2.308-1.822-2.887
				c-0.782-0.589-2.336-1.548-3.365-1.024C342.022,105.759,343.093,108.663,344.314,109.548z"/>
			<path style="fill:#D2A57A;" d="M369.729,114.339c-0.745,0.899-1.026,2.175-0.682,3.291c0.343,1.116,1.318,2.025,2.464,2.245
				c2.691,0.517,4.088-2.364,3.505-4.647C374.417,112.885,371.15,112.623,369.729,114.339z"/>
			<path style="fill:#D2A57A;" d="M356.544,122.354c-0.957,0.665-1.194,2.13-0.568,3.113c0.626,0.983,1.973,1.398,3.077,1.026
				c1.142-0.385,2.601-2.022,1.685-3.228C359.852,122.1,357.806,121.477,356.544,122.354z"/>
			<path style="fill:#D2A57A;" d="M341.07,119.922c-0.108,0.647-0.052,1.337,0.256,1.916c1.246,2.341,4.929,1.102,4.775-1.47
				C345.955,117.922,341.522,117.223,341.07,119.922z"/>
			<path style="fill:#D2A57A;" d="M337.541,143.528c-0.289,1.227,0.125,2.615,1.097,3.418c2.89,2.387,6.078-1.598,4.982-4.479
				C342.393,139.245,338.216,140.662,337.541,143.528z"/>
			<path style="fill:#D2A57A;" d="M326.251,179.709c-1.069,0.936-1.239,2.73-0.364,3.85c0.874,1.12,2.656,1.39,3.823,0.58
				C332.971,181.875,329.264,177.071,326.251,179.709z"/>
			<path style="fill:#D2A57A;" d="M361.203,145.496c1.203,1.201,4.555,1.87,5.428-0.096c0.554-1.248-0.67-2.832-1.47-3.66
				c-0.818-0.847-2.38-2.126-3.677-1.686C359.355,140.777,359.973,144.264,361.203,145.496z"/>
			<path style="fill:#D2A57A;" d="M379.147,129.073c-0.453,1.088-0.341,2.441,0.367,3.354c0.129,0.166,0.278,0.318,0.447,0.451
				c1.009,0.795,2.439,0.768,3.695,0.495C390.543,131.876,381.911,122.429,379.147,129.073z"/>
			<path style="fill:#D2A57A;" d="M322.021,146.967c3.107,2.92,6.987-1.877,4.044-4.751
				C322.969,139.193,319.13,144.251,322.021,146.967z"/>
			<path style="fill:#D2A57A;" d="M376.571,179.258c-0.926,0.854-2.457,1.007-3.482,0.275c-1.026-0.732-1.359-2.312-0.643-3.348
				c0.484-0.7,1.312-1.073,2.124-1.328C377.635,173.898,378.627,177.364,376.571,179.258z"/>
			<path style="fill:#D2A57A;" d="M349.693,202.691c0.767,0.768,2.038,0.93,3.02,0.469c0.983-0.461,1.654-1.476,1.803-2.551
				c0.083-0.602,0.003-1.256-0.367-1.739c-0.544-0.711-1.59-0.871-2.449-0.619C349.874,198.786,347.925,200.92,349.693,202.691z"/>
			<path style="fill:#D2A57A;" d="M363.636,170.407c0.412-1.425,0.017-3.16-1.228-3.966c-2.617-1.695-6.783,1.789-5.885,4.658
				C357.688,174.818,362.73,173.538,363.636,170.407z"/>
			<path style="fill:#D2A57A;" d="M343.687,176.646c1.039,0.785,2.42,1.232,3.665,0.849c1.647-0.507,2.614-2.495,2.129-4.149
				c-0.485-1.654-2.24-2.788-3.961-2.702c-1.442,0.072-3.224,1.087-3.817,2.468C341.106,174.501,342.652,175.864,343.687,176.646z"
				/>
			<path style="fill:#D2A57A;" d="M344.261,159.55c0.199-0.906-0.188-1.876-0.848-2.528c-0.66-0.652-1.559-1.017-2.469-1.196
				c-2.71-0.534-5.671,1.244-3.423,3.941C339.009,161.551,343.544,162.805,344.261,159.55z"/>
			<path style="fill:#D2A57A;" d="M365.601,183.182c-3.377-4.145-6.714-1.634-3.489,2.505c0.599,0.769,2.288,2.986,3.455,2.869
				C367.936,188.318,366.586,184.391,365.601,183.182z"/>
			<path style="fill:#D2A57A;" d="M321.785,160.611c0.493-0.964,0.245-2.286-0.64-2.909c-1.724-1.214-4.875,0.543-4.419,2.717
				C317.223,162.787,320.842,162.454,321.785,160.611z"/>
			<path style="fill:#D2A57A;" d="M368.296,197.929c-0.988-1.037-3.93-1.801-4.704-0.1c-0.478,1.049,0.609,2.463,1.258,3.174
				c0.66,0.723,2.01,1.953,3.118,1.627C369.851,202.076,369.334,199.023,368.296,197.929z"/>
			<path style="fill:#D2A57A;" d="M344.478,191.772c0.898-0.746,1.409-1.948,1.278-3.108c-0.132-1.16-0.922-2.233-2.008-2.661
				c-2.549-1.004-4.454,1.569-4.302,3.921C339.602,192.337,342.765,193.197,344.478,191.772z"/>
			<path style="fill:#D2A57A;" d="M379.99,196.055c1.063-0.477,1.566-1.873,1.132-2.955c-0.434-1.081-1.682-1.738-2.835-1.576
				c-1.194,0.168-2.93,1.508-2.251,2.862C376.692,195.694,378.588,196.684,379.99,196.055z"/>
			<path style="fill:#D2A57A;" d="M393.683,178.413c0.226-0.616,0.298-1.304,0.102-1.93c-0.793-2.531-4.641-1.992-4.964,0.564
				C388.513,179.478,392.742,180.982,393.683,178.413z"/>
			<path style="fill:#D2A57A;" d="M370.936,160.916c0.51-1.153,0.359-2.594-0.448-3.562c-2.4-2.879-6.269,0.45-5.723,3.483
				C365.377,164.231,369.744,163.609,370.936,160.916z"/>
			<path style="fill:#D2A57A;" d="M390.016,154.592c1.224-0.723,1.721-2.454,1.068-3.717c-0.653-1.262-2.354-1.856-3.651-1.275
				C383.81,151.224,386.567,156.629,390.016,154.592z"/>
			<path style="fill:#D2A57A;" d="M355.924,152.773c-0.961-1.402-4.132-2.678-5.353-0.907c-0.775,1.125,0.136,2.907,0.769,3.868
				c0.648,0.983,1.947,2.528,3.303,2.335C356.869,157.752,356.905,154.211,355.924,152.773z"/>
			<path style="fill:#D2A57A;" d="M333.674,170.764c0.646-0.986,0.785-2.336,0.258-3.364c-0.096-0.188-0.214-0.364-0.356-0.526
				c-0.845-0.967-2.256-1.205-3.54-1.168C322.991,165.908,329.732,176.784,333.674,170.764z"/>
			<path style="fill:#D2A57A;" d="M386.113,163.415c-2.515-3.443-7.213,0.555-4.851,3.924
				C383.747,170.882,388.453,166.619,386.113,163.415z"/>
		</g>
		<path style="fill:#C78B32;" d="M262.187,183.766c-1.3,2.07-2.9,4.13-4.81,6.16c-26.07,27.55-80.81,0.17-57.05-40.16
			c10.58-17.96,28.39-20.03,42.93-13.73c-3.03,2.06-5.8,4.99-8.12,8.92C221.257,168.506,242.557,186.266,262.187,183.766z"/>
	</g>
</g>
</svg>
